<?xml version="1.0" encoding="utf-8"?>
<svg width="90" height="90" viewBox="0 0 23.8125 23.8125" version="1.1" id="svg8" xmlns="http://www.w3.org/2000/svg">
  <g id="layer1" transform="translate(-84.253693,-147.08173)">
    <g id="g862" transform="matrix(0.26458333,0,0,0.26458333,84.253693,147.08173)" style="fill:#f8c574;fill-opacity:1">
      <path d="" stroke="none" stroke-width="0" stroke-linecap="butt" stroke-miterlimit="10" id="path19" style="mix-blend-mode: normal; fill-opacity: 1; fill-rule: nonzero; stroke-linejoin: miter; stroke-dasharray: none; stroke-dashoffset: 0; fill: rgb(216, 132, 0);"/>
      <path d="" stroke="none" stroke-width="0" stroke-linecap="butt" stroke-miterlimit="10" id="path21" style="mix-blend-mode: normal; fill-opacity: 1; fill-rule: nonzero; stroke-linejoin: miter; stroke-dasharray: none; stroke-dashoffset: 0; fill: rgb(216, 132, 0);"/>
      <path d="M 0,45.00003 C 0,20.147228 20.147207,0 45,0 c 24.852803,0 45,20.147228 45,45.00003 0,24.852803 -20.147167,45 -45,45 -24.852803,0 -45,-20.147207 -45,-45 z" stroke="none" stroke-width="0" stroke-linecap="butt" stroke-miterlimit="10" id="path23" style="mix-blend-mode: normal; fill-opacity: 1; fill-rule: nonzero; stroke-linejoin: miter; stroke-dasharray: none; stroke-dashoffset: 0; fill: rgb(216, 132, 0);"/>
    </g>
  </g>
  <path style="fill: rgb(110, 55, 0);" d="M 0.329 14.162 C 4.755 14.676 17.234 14.36 23.572 13.964 C 24.427 13.911 24.624 10.66 23.769 10.605 C 14.798 10.031 12.281 10.755 0.424 10.265 C -0.385 10.232 -0.522 14.063 0.329 14.162 Z"/>
  <path style="fill: rgb(255, 184, 0);" d="M 0.127 10.527 C 0.127 10.527 6.749 10.247 9.901 10.565 C 10.87 10.663 11.874 12.597 11.874 12.597 C 11.874 12.597 12.376 11.638 14.198 10.995 C 17.096 9.973 23.822 10.678 23.822 10.678 C 23.822 10.678 23.995 9.758 23.597 9.766 C 14.386 9.957 8.373 9.013 0.366 9.689 C 0.114 9.71 0.127 10.527 0.127 10.527 Z"/>
  <path style="fill: rgb(21, 129, 0);" d="M 0.101 10.32 C 0.101 10.32 1.911 9.35 2.365 9.965 C 2.693 10.409 4.214 10.199 6.304 10.074 C 7.921 9.977 8.622 9.804 11.813 9.905 C 14.457 9.989 16.905 10.389 19.391 10.036 C 22.029 9.661 23.938 10.035 23.938 10.035 C 23.938 10.035 23.826 9.03 23.45 9.017 C 15.202 8.721 2.905 9.887 0.598 9.139 C 0.118 8.984 0.101 10.32 0.101 10.32 Z"/>
  <path style="fill: rgb(255, 197, 82); transform-box: fill-box; transform-origin: 50% 48.6567%;" d="M 6.668 4.261 C 6.321 3.708 6.7 2.302 6.7 2.302 C 6.7 2.302 7.796 3.155 7.889 3.78 C 7.936 4.094 7.83 4.546 7.535 4.663 C 7.239 4.78 6.837 4.531 6.668 4.261 Z"/>
  <path style="fill: rgb(255, 197, 82); transform-origin: 13.156px 6.605px;" d="M 12.613 7.401 C 12.266 6.848 12.645 5.442 12.645 5.442 C 12.645 5.442 13.741 6.295 13.834 6.92 C 13.881 7.234 13.775 7.686 13.48 7.803 C 13.184 7.92 12.782 7.671 12.613 7.401 Z"/>
  <path style="fill: rgb(255, 197, 82); transform-origin: 4.839px 7.087px;" d="M 4.296 7.883 C 3.949 7.33 4.328 5.924 4.328 5.924 C 4.328 5.924 5.424 6.777 5.517 7.402 C 5.564 7.716 5.458 8.168 5.163 8.285 C 4.867 8.402 4.465 8.153 4.296 7.883 Z"/>
  <path style="fill: rgb(255, 197, 82); transform-origin: 7.601px 7.119px;" d="M 7.058 7.915 C 6.711 7.362 7.09 5.956 7.09 5.956 C 7.09 5.956 8.186 6.809 8.279 7.434 C 8.326 7.748 8.22 8.2 7.925 8.317 C 7.629 8.434 7.227 8.185 7.058 7.915 Z"/>
  <path style="fill: rgb(255, 197, 82); transform-origin: 10.266px 5.577px;" d="M 9.723 6.373 C 9.376 5.82 9.755 4.414 9.755 4.414 C 9.755 4.414 10.851 5.267 10.944 5.892 C 10.991 6.206 10.885 6.658 10.59 6.775 C 10.294 6.892 9.892 6.643 9.723 6.373 Z"/>
  <path style="fill: rgb(255, 197, 82); transform-origin: 9.431px 2.109px;" d="M 8.888 2.905 C 8.541 2.352 8.92 0.946 8.92 0.946 C 8.92 0.946 10.016 1.799 10.109 2.424 C 10.156 2.738 10.05 3.19 9.755 3.307 C 9.459 3.424 9.057 3.175 8.888 2.905 Z"/>
  <path style="fill: rgb(255, 197, 82); transform-origin: 11.807px 3.843px;" d="M 11.264 4.639 C 10.917 4.086 11.296 2.68 11.296 2.68 C 11.296 2.68 12.392 3.533 12.485 4.158 C 12.532 4.472 12.426 4.924 12.131 5.041 C 11.835 5.158 11.433 4.909 11.264 4.639 Z"/>
  <path style="fill: rgb(255, 197, 82); transform-origin: 9.559px 7.632px;" d="M 9.016 8.428 C 8.669 7.875 9.048 6.469 9.048 6.469 C 9.048 6.469 10.144 7.322 10.237 7.947 C 10.284 8.261 10.178 8.713 9.883 8.83 C 9.587 8.947 9.185 8.698 9.016 8.428 Z"/>
  <path style="fill: rgb(255, 197, 82); transform-origin: 12.867px 1.631px;" d="M 12.324 2.427 C 11.977 1.874 12.356 0.468 12.356 0.468 C 12.356 0.468 13.452 1.321 13.545 1.946 C 13.592 2.26 13.486 2.712 13.191 2.829 C 12.895 2.946 12.493 2.697 12.324 2.427 Z"/>
  <path style="fill: rgb(255, 197, 82); transform-origin: 14.698px 4.04px;" d="M 14.155 4.836 C 13.808 4.283 14.187 2.877 14.187 2.877 C 14.187 2.877 15.283 3.73 15.376 4.355 C 15.423 4.669 15.317 5.121 15.022 5.238 C 14.726 5.355 14.324 5.106 14.155 4.836 Z"/>
  <path style="fill: rgb(255, 197, 82); transform-origin: 16.207px 7.058px;" d="M 15.664 7.854 C 15.317 7.301 15.696 5.895 15.696 5.895 C 15.696 5.895 16.792 6.748 16.885 7.373 C 16.932 7.687 16.826 8.139 16.531 8.256 C 16.235 8.373 15.833 8.124 15.664 7.854 Z"/>
  <path style="fill: rgb(255, 197, 82); transform-origin: 17.877px 4.296px;" d="M 17.334 5.092 C 16.987 4.539 17.366 3.133 17.366 3.133 C 17.366 3.133 18.462 3.986 18.555 4.611 C 18.602 4.925 18.496 5.377 18.201 5.494 C 17.905 5.611 17.503 5.362 17.334 5.092 Z"/>
  <path style="fill: rgb(255, 197, 82); transform-origin: 20.336px 7.148px;" d="M 19.793 7.944 C 19.446 7.391 19.825 5.985 19.825 5.985 C 19.825 5.985 20.921 6.838 21.014 7.463 C 21.061 7.777 20.955 8.229 20.66 8.346 C 20.364 8.463 19.962 8.214 19.793 7.944 Z"/>
  <path style="fill: rgb(255, 197, 82); transform-origin: 5.346px 4.297px;" d="M 4.803 5.093 C 4.456 4.54 4.835 3.134 4.835 3.134 C 4.835 3.134 5.931 3.987 6.024 4.612 C 6.071 4.926 5.965 5.378 5.67 5.495 C 5.374 5.612 4.972 5.363 4.803 5.093 Z"/>
  <path style="fill: rgb(255, 197, 82); transform-origin: 18.212px 7.088px;" d="M 17.669 7.884 C 17.322 7.331 17.701 5.925 17.701 5.925 C 17.701 5.925 18.797 6.778 18.89 7.403 C 18.937 7.717 18.831 8.169 18.536 8.286 C 18.24 8.403 17.838 8.154 17.669 7.884 Z"/>
  <path style="fill: rgb(255, 197, 82); transform-origin: 2.737px 7.27px;" d="M 2.194 8.066 C 1.847 7.513 2.226 6.107 2.226 6.107 C 2.226 6.107 3.322 6.96 3.415 7.585 C 3.462 7.899 3.356 8.351 3.061 8.468 C 2.765 8.585 2.363 8.336 2.194 8.066 Z"/>
</svg>